HIERARCHY
ROOT Hips
{
  OFFSET -231.746 89.5955 -247.171
  CHANNELS 6 Xposition Yposition Zposition Zrotation Xrotation Yrotation
  JOINT ToSpine
  {
    OFFSET -2.69724 7.43032 -0.144315
    CHANNELS 3 Zrotation Xrotation Yrotation
    JOINT Spine
    {
      OFFSET -0.0310711 10.7595 1.96963
      CHANNELS 3 Zrotation Xrotation Yrotation
      JOINT Spine1
      {
        OFFSET 13.1342 3.43533 0.764692
        CHANNELS 3 Zrotation Xrotation Yrotation
        JOINT Neck
        {
          OFFSET 29.8703 7.82586 -0.130764
          CHANNELS 3 Zrotation Xrotation Yrotation
          JOINT Head
          {
            OFFSET 9.52751 0.295786 -0.907742
            CHANNELS 3 Zrotation Xrotation Yrotation
            End Site
            {
              OFFSET 16.4037 0.713936 2.7358
            }
          }
        }
        JOINT LeftShoulder
        {
          OFFSET 27.5574 4.95586 2.47156
          CHANNELS 3 Zrotation Xrotation Yrotation
          JOINT LeftArm
          {
            OFFSET 1.20734 -0.998971 20.1238
            CHANNELS 3 Zrotation Xrotation Yrotation
            JOINT LeftForeArm
            {
              OFFSET 26.8049 -0.0536703 -0.155908
              CHANNELS 3 Zrotation Xrotation Yrotation
              JOINT LeftHand
              {
                OFFSET 26.6817 0 0.320147
                CHANNELS 3 Zrotation Xrotation Yrotation
                End Site
                {
                  OFFSET 18.6119 0 0.382219
                }
              }
            }
          }
        }
        JOINT RightShoulder
        {
          OFFSET 27.5927 4.71444 -2.65209
          CHANNELS 3 Zrotation Xrotation Yrotation
          JOINT RightArm
          {
            OFFSET 2.83739 -1.17114 -18.7564
            CHANNELS 3 Zrotation Xrotation Yrotation
            JOINT RightForeArm
            {
              OFFSET 28.839 -0.0548439 1.22491
              CHANNELS 3 Zrotation Xrotation Yrotation
              JOINT RightHand
              {
                OFFSET 26.5114 0 -0.101894
                CHANNELS 3 Zrotation Xrotation Yrotation
                End Site
                {
                  OFFSET 18.2168 0 0
                }
              }
            }
          }
        }
      }
    }
  }
  JOINT LeftUpLeg
  {
    OFFSET -4.76168 -1.9167 -10.2353
    CHANNELS 3 Zrotation Xrotation Yrotation
    JOINT LeftLeg
    {
      OFFSET 2.55951 -42.0585 -8.02213
      CHANNELS 3 Zrotation Xrotation Yrotation
      JOINT LeftFoot
      {
        OFFSET 3.16357 -42.5282 -3.95426
        CHANNELS 3 Zrotation Xrotation Yrotation
        JOINT LeftToeBase
        {
          OFFSET 0.346054 -6.02161 12.8035
          CHANNELS 3 Zrotation Xrotation Yrotation
          End Site
          {
            OFFSET 0.134235 -1.35082 5.13018
          }
        }
      }
    }
  }
  JOINT RightUpLeg
  {
    OFFSET -4.94151 -1.41743 10.6446
    CHANNELS 3 Zrotation Xrotation Yrotation
    JOINT RightLeg
    {
      OFFSET -2.56294 -42.0364 -7.94377
      CHANNELS 3 Zrotation Xrotation Yrotation
      JOINT RightFoot
      {
        OFFSET -3.0952 -42.555 -4.02241
        CHANNELS 3 Zrotation Xrotation Yrotation
        JOINT RightToeBase
        {
          OFFSET -0.0828122 -6.13587 12.8035
          CHANNELS 3 Zrotation Xrotation Yrotation
          End Site
          {
            OFFSET -0.131328 -1.35082 5.13018
          }
        }
      }
    }
  }
}
MOTION
Frames:	10
Frame Time:	0.0333333
-231.746 89.5955 -247.171 59.5845 -37.3175 -24.342 -70.1915 0 88.8779 100.689 69.5444 -22.8352 -3.14061 19.8676 1.41506 -158.294 18.1489 166.737 -152.921 56.9155 -177.381 0.220316 -14.097 -31.6552 -79.5836 42.6927 -68.5516 21.2528 0.751322 -87.3902 0.420957 0.000575291 0.35866 -1.79578 5.30014 48.3317 -64.6393 -40.8122 66.683 14.3667 -4.93118 71.3681 0.58676 0.000331105 0.0646654 -43.045 -8.06716 97.0816 -5.86052 55.7832 -13.5708 4.2252 -20.0621 -1.49618 6.54058 -15.3609 19.9526 -12.6924 0.164171 88.2916 170.285 61.7125 -178.714 -6.43363 15.0973 0.659117 1.94754 -5.31885 -11.2949 
-223.882 91.8729 -239.682 58.6681 -36.307 -21.932 -70.1915 0 88.8779 94.2623 67.3948 -13.4791 -2.00618 16.7169 2.08417 -156.58 17.3267 169.792 -155.552 56.578 -173.839 0.474619 -13.0257 -30.6084 -81.7325 44.8134 -69.0564 20.3642 -1.07575 -92.1875 0.420957 0.000575291 0.35866 -1.86494 5.87819 46.2058 -61.6541 -43.4126 64.2324 17.6772 -5.69273 72.6012 0.58676 0.000331105 0.0646654 -52.3351 -5.77374 93.9677 -4.55194 48.4289 -15.2649 2.81764 -11.5508 -1.08326 10.5227 -20.9779 14.5678 -7.18223 2.00452 86.4599 165.74 72.6824 -170.759 -5.54703 14.4423 0.449282 2.22319 -15.2134 -12.5572 
-215.974 94.0216 -232.115 56.4354 -35.7836 -21.7526 -70.1915 0 88.8779 83.2129 65.9004 -0.939751 0.92701 14.6014 3.26435 -157.287 16.9386 172.323 -156.686 56.1959 -173.655 0.65538 -12.2014 -29.8072 -83.2797 46.9912 -69.0564 20.929 -3.12019 -97.3622 0.420957 0.000575291 0.35866 -1.75866 6.22669 42.8032 -60.4925 -47.4623 62.3932 16.5421 -5.09098 73.258 0.58676 0.000331105 0.0646654 -58.9086 -2.93643 93.9392 -3.64991 41.8084 -15.168 -1.47029 -1.87442 -0.0709237 10.3604 -21.1817 6.39088 -4.04286 3.40999 86.2321 99.8813 86.4076 -100.984 -1.54739 16.223 -0.672819 2.45838 -10.7125 -16.8482 
-207.899 96.3817 -224.195 57.7553 -35.3658 -18.9166 -70.1915 0 88.8779 79.3293 64.3535 3.91811 3.90622 13.2234 3.48148 -156.058 16.7047 169.645 -151.307 55.2551 -178.839 0.673871 -12.2509 -28.3326 -82.9537 48.6031 -69.2572 22.705 -5.31073 -101.716 0.420957 0.000575291 0.35866 -1.63641 5.66028 43.5763 -65.0976 -47.0863 54.9797 18.1533 -4.76928 75.6414 0.58676 0.000331105 0.0646654 -67.4935 1.16169 94.7097 -3.03219 34.4961 -17.0908 -8.50433 10.467 2.59004 6.78889 -13.6167 -7.96251 -7.68985 3.81509 84.8821 6.7731 69.568 -7.43525 3.06302 16.8839 -1.98031 2.75339 2.63745 -16.6941 
-199.924 97.6141 -216.18 57.1075 -34.489 -20.0094 -70.1915 0 88.8779 72.3778 63.2154 9.2582 5.1115 12.6255 4.04519 -155.877 16.7355 167.274 -148.607 54.7601 177.938 0.574324 -12.9211 -27.4911 -80.7623 49.9207 -69.758 20.6455 -6.94178 -106.994 0.420957 0.000575291 0.35866 -1.49245 5.04688 44.3683 -68.3526 -46.9356 49.4038 19.1773 -4.18932 77.9911 0.58676 0.000331105 0.0646654 -71.9293 2.01532 96.2716 -2.26694 32.759 -20.1488 -10.6595 17.0481 4.17581 -0.410258 1.11283 -0.52852 -11.8607 4.28456 87.3285 2.6915 46.6309 3.09252 3.96783 19.7045 -2.53849 3.39825 -0.571802 -21.2664 
-191.931 97.538 -208.79 57.3498 -33.3063 -20.6427 -70.1915 0 88.8779 66.6192 61.4263 13.6676 7.46095 11.7622 4.2409 -157.052 16.679 166.486 -147.474 54.1956 175.351 0.49924 -13.3646 -27.4397 -79.6061 50.3713 -69.4253 21.1886 -9.13448 -111.462 0.420957 0.000575291 0.35866 -1.34948 4.78592 43.1557 -69.8151 -47.5955 46.8984 15.5826 -2.65313 80.4272 0.58676 0.000331105 0.0646654 -73.8706 1.77927 94.2637 -2.79325 37.6699 -10.3572 -7.02289 11.4442 2.39551 -1.14561 1.89712 1.24935 -16.5386 2.89165 87.2796 1.07485 25.6576 8.82154 5.03397 21.4466 -3.06549 2.67752 -8.06684 -18.5194 
-184.219 97.0726 -201.799 58.0814 -32.5074 -21.1244 -70.1915 0 88.8779 64.2931 60.2239 15.5053 8.45122 11.0242 4.66928 -157.286 17.1411 170.56 -151.535 55.4566 179.158 0.45993 -13.4221 -28.4278 -75.3683 51.8076 -71.0606 17.9754 -8.35667 -113.295 0.420957 0.000575291 0.35866 -1.27937 5.05885 40.2884 -70.8722 -49.491 46.1643 16.6728 -2.64505 81.0834 0.58676 0.000331105 0.0646654 -74.1679 1.53157 94.2067 -2.65147 45.2757 -2.81447 -4.03641 9.02337 1.44273 -0.71905 0.67092 1.97212 -18.8684 0.628409 86.1168 2.11611 16.5938 7.79045 6.58287 21.8491 -3.60819 2.71185 -6.46773 -18.2542 
-176.838 95.4426 -194.878 60.8084 -32.6662 -19.7686 -70.1915 0 88.8779 66.5823 61.1943 13.5355 9.0993 12.0788 2.88386 -153.83 17.3541 165.379 -144.383 54.6215 173.71 0.319704 -14.6303 -26.4818 -71.5528 53.3546 -73.2889 18.5737 -7.50401 -110.421 0.420957 0.000575291 0.35866 -1.18266 4.1793 43.4866 -73.1575 -47.0272 45.8736 16.8171 -2.67636 81.0603 0.58676 0.000331105 0.0646654 -73.2528 1.5332 92.9149 -3.97948 57.8571 1.65897 -3.744 8.60626 1.33666 -1.04507 0.964334 2.86251 -20.9918 -0.287204 84.9544 2.73183 20.9858 5.07806 6.61703 22.8464 -3.75122 2.92121 -8.18397 -21.2434 
-169.324 92.6365 -188.124 62.9816 -34.9017 -18.7216 -70.1915 0 88.8779 78.9639 63.0876 3.41536 5.25027 12.7052 2.96045 -155.345 18.2151 170.244 -148.853 56.2697 177.705 0.258033 -14.4872 -28.6344 -73.2232 53.4136 -70.3005 18.5343 -5.80215 -105.985 0.420957 0.000575291 0.35866 -1.28625 4.67722 42.5379 -72.2775 -46.2169 51.2194 17.7034 -3.98361 77.5829 0.58676 0.000331105 0.0646654 -70.7269 1.79056 93.688 -9.93418 72.2521 5.85158 -3.62824 9.80029 1.4419 0.782518 -3.24088 4.24278 -22.9586 -1.19318 77.6638 2.23871 33.0171 5.77013 0.177717 15.4401 -1.07564 0.349694 -1.83864 -0.949226 
-162.175 90.2582 -181.939 63.9821 -38.3966 -17.5116 -70.1915 0 88.8779 95.7542 64.9852 -8.97109 1.80464 14.5532 2.00625 -158.437 19.1495 172.486 -150.26 57.3243 178.213 0.0731742 -14.845 -31.3867 -76.0975 51.9771 -66.6384 22.2946 -3.89613 -98.667 0.420957 0.000575291 0.35866 -1.38764 4.99528 42.6893 -72.9454 -43.8657 58.5166 15.384 -5.83751 69.6345 0.58676 0.000331105 0.0646654 -65.1336 2.97275 95.1886 -49.3048 84.8892 44.9612 -6.09962 8.57167 1.81324 2.67612 -6.86847 3.94951 -23.0351 1.62888 78.6382 2.91885 48.7694 2.39623 -6.09246 -3.02913 1.01109 0.751403 -1.74074 -3.73628 
